<svg xmlns="http://www.w3.org/2000/svg" xmlns:xlink="http://www.w3.org/1999/xlink" width="933.09" height="669.54"><g transform="translate(-381.16030350024835 -74.666383648759)"><path d="M838 224c0 2.2-1.8 4-4 4s-4-1.8-4-4 1.8-4 4-4 4 1.8 4 4zM866 224c0 2.2-1.8 4-4 4s-4-1.8-4-4 1.8-4 4-4 4 1.8 4 4zM838 196c0 2.2-1.8 4-4 4s-4-1.8-4-4 1.8-4 4-4 4 1.8 4 4zM866 196c0 2.2-1.8 4-4 4s-4-1.8-4-4 1.8-4 4-4 4 1.8 4 4z" stroke="#000" stroke-width="2"/><path d="M867.76 210c0 10.92-8.84 19.76-19.76 19.76-10.92 0-19.76-8.84-19.76-19.76 0-10.92 8.84-19.76 19.76-19.76 10.92 0 19.76 8.84 19.76 19.76z" stroke="#000" stroke-width="2" fill="#bbb"/><path d="M414.24 155l-6.24-6.25-6.25-6.24-.24 239.24h6.26l6.26-6.24zM414 388l-6.24-6.25h-6.25l-.34 342.42 6.26-6.25 6.25-6.25z" stroke="#fff" fill="#fff"/><path d="M414.24 155l-.22 220.5m-12.5 6.24l.23-239.23M414 388l-.33 323.67m-12.5 12.5l.34-342.43M414 388" stroke="#000" stroke-width="2" fill="none"/><use xlink:href="#a" transform="matrix(0.0010175892395822108,-0.9999994822559357,0.9999994822559357,0.0010175892395822108,427.92570522896506,463.3660741205445) translate(10.125 14.4)"/><path d="M413.67 711.67l-6.25 6.25-6.26 6.25h469.5v-6.25l-6.24-6.25zm463.25 0l-6.25 6.25v6.25h423.58l-6.25-6.25-6.25-6.25z" stroke="#fff" fill="#fff"/><path d="M413.67 711.67h450.75m6.25 12.5h-469.5m475.75-12.5h404.83m12.5 12.5H870.67m6.25-12.5" stroke="#000" stroke-width="2" fill="none"/><use xlink:href="#b" transform="matrix(0.999999999999731,7.334334494299979e-7,-7.334334494299979e-7,0.999999999999731,817.7051829271251,681.6669671500416) translate(5.800000000000001 14.4)"/><path d="M1281.75 711.67l6.25 6.25 6.25 6.25V382H1288l-6.25 6.25zm0-335.92L1288 382h6.25V142l-6.25 6.25-6.25 6.25z" stroke="#fff" fill="#fff"/><path d="M1281.75 711.67V388.25m12.5-6.25v342.17m-12.5-348.42V154.5m12.5-12.5v240m-12.5-6.25" stroke="#000" stroke-width="2" fill="none"/><use xlink:href="#a" transform="matrix(6.123233995736766e-17,-1,1,6.123233995736766e-17,1251.7499999997672,463.0837713112812) translate(10.125 14.4)"/><path d="M876.92 496.25l-6.25-6.25-6.25 6.25v215.42l6.25 6.25 6.25-6.25z" stroke="#fff" fill="#fff"/><path d="M876.92 496.25v215.42m-12.5 0V496.25m12.5 0" stroke="#000" stroke-width="2" fill="none"/><use xlink:href="#c" transform="matrix(0.0000036848588365357194,-0.9999999999932109,0.9999999999932109,0.0000036848588365357194,890.9171121152126,633.9585776265424) translate(15.125 14.4)"/><path d="M484.42 483.75v12.5h380l6.25-6.25v-6.25zm386.25 0V490l6.25 6.25h344v-12.5z" stroke="#fff" fill="#fff"/><path d="M484.42 483.75h386.25m-6.25 12.5h-380v-12.5m386.25 0h350.25v12.5h-344m-6.25-12.5" stroke="#000" stroke-width="2" fill="none"/><use xlink:href="#d" transform="matrix(1,0,0,1,822.6666666666667,453.7500000003263) translate(10.125 14.4)"/><path d="M590.44 231.75h-24.77c-2.76 0-5-2.24-5-5V160c0-2.76 2.24-5 5-5H645c2.76 0 5 2.24 5 5v20.58" stroke="#000" stroke-width="5" fill="none"/><path d="M802.64 648.5c0 19.45-7.15 35.22-15.97 35.22-8.83 0-15.98-15.77-15.98-35.22s7.14-35.22 15.97-35.22c8.82 0 15.97 15.77 15.97 35.22z" stroke="#000" stroke-width="2" fill="#fff"/><path d="M786.67 613.28c-8.1 0-14.75 13.2-15.8 30.46 4.35-4.75 9.85-7.52 15.8-7.52 5.95 0 11.44 2.77 15.8 7.52-1.06-17.25-7.72-30.46-15.8-30.46z" stroke="#000" stroke-width="2" fill="#555"/><path d="M786.67 636.22c-5.95 0-11.45 2.77-15.8 7.52-.05.7-.08 1.42-.1 2.2 4.35-4.75 9.88-7.66 15.9-7.66 6 0 11.54 2.9 15.9 7.66l-.1-2.2c-4.36-4.75-9.85-7.52-15.8-7.52z" stroke="#000" stroke-width="2" fill="#333"/><path d="M730.64 549.5c0 19.45-7.15 35.22-15.97 35.22-8.83 0-15.98-15.77-15.98-35.22s7.14-35.22 15.97-35.22c8.82 0 15.97 15.77 15.97 35.22z" stroke="#000" stroke-width="2" fill="#fff"/><path d="M714.67 514.28c-8.1 0-14.75 13.2-15.8 30.46 4.35-4.75 9.85-7.52 15.8-7.52 5.95 0 11.44 2.77 15.8 7.52-1.06-17.25-7.72-30.46-15.8-30.46z" stroke="#000" stroke-width="2" fill="#555"/><path d="M714.67 537.22c-5.95 0-11.45 2.77-15.8 7.52-.05.7-.08 1.42-.1 2.2 4.35-4.75 9.88-7.66 15.9-7.66 6 0 11.54 2.9 15.9 7.66l-.1-2.2c-4.36-4.75-9.85-7.52-15.8-7.52z" stroke="#000" stroke-width="2" fill="#333"/><path d="M802.97 549.83c0 19.46-7.14 35.22-15.97 35.22-8.83 0-15.97-15.76-15.97-35.22 0-19.45 7.14-35.2 15.97-35.2 8.83 0 15.97 15.75 15.97 35.2z" stroke="#000" stroke-width="2" fill="#fff"/><path d="M787 514.62c-8.08 0-14.74 13.2-15.8 30.46 4.35-4.76 9.85-7.53 15.8-7.53 5.95 0 11.45 2.77 15.8 7.53-1.06-17.26-7.72-30.46-15.8-30.46z" stroke="#000" stroke-width="2" fill="#555"/><path d="M787 537.55c-5.95 0-11.45 2.77-15.8 7.53-.04.7-.08 1.42-.1 2.2 4.36-4.76 9.9-7.67 15.9-7.67s11.54 2.92 15.9 7.68c-.02-.78-.06-1.5-.1-2.2-4.35-4.76-9.85-7.53-15.8-7.53z" stroke="#000" stroke-width="2" fill="#333"/><path d="M730.8 649c0 19.45-7.14 35.22-15.97 35.22-8.82 0-15.97-15.77-15.97-35.22s7.15-35.22 15.97-35.22c8.83 0 15.98 15.77 15.98 35.22z" stroke="#000" stroke-width="2" fill="#fff"/><path d="M714.83 613.78c-8.08 0-14.74 13.2-15.8 30.46 4.36-4.75 9.85-7.52 15.8-7.52 5.95 0 11.45 2.77 15.8 7.52-1.05-17.25-7.7-30.46-15.8-30.46z" stroke="#000" stroke-width="2" fill="#555"/><path d="M714.83 636.72c-5.95 0-11.44 2.77-15.8 7.52l-.1 2.2c4.36-4.75 9.9-7.66 15.9-7.66 6.02 0 11.55 2.9 15.9 7.66-.02-.78-.05-1.5-.1-2.2-4.35-4.75-9.85-7.52-15.8-7.52z" stroke="#000" stroke-width="2" fill="#333"/><path d="M658.3 552.5c0 19.45-7.14 35.22-15.97 35.22-8.82 0-15.97-15.77-15.97-35.22s7.15-35.22 15.97-35.22c8.83 0 15.98 15.77 15.98 35.22z" stroke="#000" stroke-width="2" fill="#fff"/><path d="M642.33 517.28c-8.08 0-14.74 13.2-15.8 30.46 4.36-4.75 9.85-7.52 15.8-7.52 5.95 0 11.45 2.77 15.8 7.52-1.05-17.25-7.7-30.46-15.8-30.46z" stroke="#000" stroke-width="2" fill="#555"/><path d="M642.33 540.22c-5.95 0-11.44 2.77-15.8 7.52l-.1 2.2c4.36-4.75 9.9-7.66 15.9-7.66 6.02 0 11.55 2.9 15.9 7.66-.02-.78-.05-1.5-.1-2.2-4.35-4.75-9.85-7.52-15.8-7.52z" stroke="#000" stroke-width="2" fill="#333"/><path d="M657.8 649.83c0 19.46-7.14 35.22-15.97 35.22-8.82 0-15.97-15.76-15.97-35.22 0-19.45 7.15-35.2 15.97-35.2 8.83 0 15.98 15.75 15.98 35.2z" stroke="#000" stroke-width="2" fill="#fff"/><path d="M641.83 614.62c-8.08 0-14.74 13.2-15.8 30.46 4.36-4.76 9.85-7.53 15.8-7.53 5.95 0 11.45 2.77 15.8 7.53-1.05-17.26-7.7-30.46-15.8-30.46z" stroke="#000" stroke-width="2" fill="#555"/><path d="M641.83 637.55c-5.95 0-11.44 2.77-15.8 7.53l-.1 2.2c4.36-4.76 9.9-7.67 15.9-7.67 6.02 0 11.55 2.92 15.9 7.68-.02-.78-.05-1.5-.1-2.2-4.35-4.76-9.85-7.53-15.8-7.53z" stroke="#000" stroke-width="2" fill="#333"/><path d="M585.97 552.5c0 19.45-7.14 35.22-15.97 35.22-8.83 0-15.97-15.77-15.97-35.22s7.14-35.22 15.97-35.22c8.83 0 15.97 15.77 15.97 35.22z" stroke="#000" stroke-width="2" fill="#fff"/><path d="M570 517.28c-8.08 0-14.74 13.2-15.8 30.46 4.35-4.75 9.85-7.52 15.8-7.52 5.95 0 11.45 2.77 15.8 7.52-1.06-17.25-7.72-30.46-15.8-30.46z" stroke="#000" stroke-width="2" fill="#555"/><path d="M570 540.22c-5.95 0-11.45 2.77-15.8 7.52-.04.7-.08 1.42-.1 2.2 4.36-4.75 9.9-7.66 15.9-7.66s11.54 2.9 15.9 7.66c-.02-.78-.06-1.5-.1-2.2-4.35-4.75-9.85-7.52-15.8-7.52z" stroke="#000" stroke-width="2" fill="#333"/><path d="M586.14 645c0 19.45-7.15 35.22-15.97 35.22-8.83 0-15.98-15.77-15.98-35.22s7.14-35.22 15.97-35.22c8.82 0 15.97 15.77 15.97 35.22z" stroke="#000" stroke-width="2" fill="#fff"/><path d="M570.17 609.78c-8.1 0-14.75 13.2-15.8 30.46 4.35-4.75 9.85-7.52 15.8-7.52 5.95 0 11.44 2.77 15.8 7.52-1.06-17.25-7.72-30.46-15.8-30.46z" stroke="#000" stroke-width="2" fill="#555"/><path d="M570.17 632.72c-5.95 0-11.45 2.77-15.8 7.52-.05.7-.08 1.42-.1 2.2 4.35-4.75 9.88-7.66 15.9-7.66 6 0 11.54 2.9 15.9 7.66l-.1-2.2c-4.36-4.75-9.85-7.52-15.8-7.52z" stroke="#000" stroke-width="2" fill="#333"/><path d="M1072.8 645c0 19.45-7.14 35.22-15.97 35.22-8.82 0-15.97-15.77-15.97-35.22s7.15-35.22 15.97-35.22c8.83 0 15.98 15.77 15.98 35.22z" stroke="#000" stroke-width="2" fill="#fff"/><path d="M1056.83 609.78c-8.08 0-14.74 13.2-15.8 30.46 4.36-4.75 9.85-7.52 15.8-7.52 5.95 0 11.45 2.77 15.8 7.52-1.05-17.25-7.7-30.46-15.8-30.46z" stroke="#000" stroke-width="2" fill="#555"/><path d="M1056.83 632.72c-5.95 0-11.44 2.77-15.8 7.52l-.1 2.2c4.36-4.75 9.9-7.66 15.9-7.66 6.02 0 11.55 2.9 15.9 7.66-.02-.78-.05-1.5-.1-2.2-4.35-4.75-9.85-7.52-15.8-7.52z" stroke="#000" stroke-width="2" fill="#333"/><path d="M1072.3 550c0 19.45-7.14 35.22-15.97 35.22-8.82 0-15.97-15.77-15.97-35.22s7.15-35.22 15.97-35.22c8.83 0 15.98 15.77 15.98 35.22z" stroke="#000" stroke-width="2" fill="#fff"/><path d="M1056.33 514.78c-8.08 0-14.74 13.2-15.8 30.46 4.36-4.75 9.85-7.52 15.8-7.52 5.95 0 11.45 2.77 15.8 7.52-1.05-17.25-7.7-30.46-15.8-30.46z" stroke="#000" stroke-width="2" fill="#555"/><path d="M1056.33 537.72c-5.95 0-11.44 2.77-15.8 7.52l-.1 2.2c4.36-4.75 9.9-7.66 15.9-7.66 6.02 0 11.55 2.9 15.9 7.66-.02-.78-.05-1.5-.1-2.2-4.35-4.75-9.85-7.52-15.8-7.52z" stroke="#000" stroke-width="2" fill="#333"/><path d="M1005.97 645c0 19.45-7.14 35.22-15.97 35.22-8.83 0-15.97-15.77-15.97-35.22s7.14-35.22 15.97-35.22c8.83 0 15.97 15.77 15.97 35.22z" stroke="#000" stroke-width="2" fill="#fff"/><path d="M990 609.78c-8.08 0-14.74 13.2-15.8 30.46 4.35-4.75 9.85-7.52 15.8-7.52 5.95 0 11.45 2.77 15.8 7.52-1.06-17.25-7.72-30.46-15.8-30.46z" stroke="#000" stroke-width="2" fill="#555"/><path d="M990 632.72c-5.95 0-11.45 2.77-15.8 7.52-.04.7-.08 1.42-.1 2.2 4.36-4.75 9.9-7.66 15.9-7.66s11.54 2.9 15.9 7.66c-.02-.78-.06-1.5-.1-2.2-4.35-4.75-9.85-7.52-15.8-7.52z" stroke="#000" stroke-width="2" fill="#333"/><path d="M1005.64 549.5c0 19.45-7.15 35.22-15.97 35.22-8.83 0-15.98-15.77-15.98-35.22s7.14-35.22 15.97-35.22c8.82 0 15.97 15.77 15.97 35.22z" stroke="#000" stroke-width="2" fill="#fff"/><path d="M989.67 514.28c-8.1 0-14.75 13.2-15.8 30.46 4.35-4.75 9.85-7.52 15.8-7.52 5.95 0 11.44 2.77 15.8 7.52-1.06-17.25-7.72-30.46-15.8-30.46z" stroke="#000" stroke-width="2" fill="#555"/><path d="M989.67 537.22c-5.95 0-11.45 2.77-15.8 7.52-.05.7-.08 1.42-.1 2.2 4.35-4.75 9.88-7.66 15.9-7.66 6 0 11.54 2.9 15.9 7.66l-.1-2.2c-4.36-4.75-9.85-7.52-15.8-7.52z" stroke="#000" stroke-width="2" fill="#333"/><path d="M939.14 645c0 19.45-7.15 35.22-15.97 35.22-8.83 0-15.98-15.77-15.98-35.22s7.14-35.22 15.97-35.22c8.82 0 15.97 15.77 15.97 35.22z" stroke="#000" stroke-width="2" fill="#fff"/><path d="M923.17 609.78c-8.1 0-14.75 13.2-15.8 30.46 4.35-4.75 9.85-7.52 15.8-7.52 5.95 0 11.44 2.77 15.8 7.52-1.06-17.25-7.72-30.46-15.8-30.46z" stroke="#000" stroke-width="2" fill="#555"/><path d="M923.17 632.72c-5.95 0-11.45 2.77-15.8 7.52-.05.7-.08 1.42-.1 2.2 4.35-4.75 9.88-7.66 15.9-7.66 6 0 11.54 2.9 15.9 7.66l-.1-2.2c-4.36-4.75-9.85-7.52-15.8-7.52z" stroke="#000" stroke-width="2" fill="#333"/><path d="M938.97 550c0 19.45-7.14 35.22-15.97 35.22-8.83 0-15.97-15.77-15.97-35.22s7.14-35.22 15.97-35.22c8.83 0 15.97 15.77 15.97 35.22z" stroke="#000" stroke-width="2" fill="#fff"/><path d="M923 514.78c-8.08 0-14.74 13.2-15.8 30.46 4.35-4.75 9.85-7.52 15.8-7.52 5.95 0 11.45 2.77 15.8 7.52-1.06-17.25-7.72-30.46-15.8-30.46z" stroke="#000" stroke-width="2" fill="#555"/><path d="M923 537.72c-5.95 0-11.45 2.77-15.8 7.52-.04.7-.08 1.42-.1 2.2 4.36-4.75 9.9-7.66 15.9-7.66s11.54 2.9 15.9 7.66c-.02-.78-.06-1.5-.1-2.2-4.35-4.75-9.85-7.52-15.8-7.52z" stroke="#000" stroke-width="2" fill="#333"/><path d="M1145.64 549.5c0 19.45-7.15 35.22-15.97 35.22-8.83 0-15.98-15.77-15.98-35.22s7.14-35.22 15.97-35.22c8.82 0 15.97 15.77 15.97 35.22z" stroke="#000" stroke-width="2" fill="#fff"/><path d="M1129.67 514.28c-8.1 0-14.75 13.2-15.8 30.46 4.35-4.75 9.85-7.52 15.8-7.52 5.95 0 11.44 2.77 15.8 7.52-1.06-17.25-7.72-30.46-15.8-30.46z" stroke="#000" stroke-width="2" fill="#555"/><path d="M1129.67 537.22c-5.95 0-11.45 2.77-15.8 7.52-.05.7-.08 1.42-.1 2.2 4.35-4.75 9.88-7.66 15.9-7.66 6 0 11.54 2.9 15.9 7.66l-.1-2.2c-4.36-4.75-9.85-7.52-15.8-7.52z" stroke="#000" stroke-width="2" fill="#333"/><path d="M1139.64 645c0 19.45-7.15 35.22-15.97 35.22-8.83 0-15.98-15.77-15.98-35.22s7.14-35.22 15.97-35.22c8.82 0 15.97 15.77 15.97 35.22z" stroke="#000" stroke-width="2" fill="#fff"/><path d="M1123.67 609.78c-8.1 0-14.75 13.2-15.8 30.46 4.35-4.75 9.85-7.52 15.8-7.52 5.95 0 11.44 2.77 15.8 7.52-1.06-17.25-7.72-30.46-15.8-30.46z" stroke="#000" stroke-width="2" fill="#555"/><path d="M1123.67 632.72c-5.95 0-11.45 2.77-15.8 7.52-.05.7-.08 1.42-.1 2.2 4.35-4.75 9.88-7.66 15.9-7.66 6 0 11.54 2.9 15.9 7.66l-.1-2.2c-4.36-4.75-9.85-7.52-15.8-7.52z" stroke="#000" stroke-width="2" fill="#333"/><path d="M1221 484l43.13-43.13M1282 484c0-16.84-5.96-31.22-17.87-43.13" stroke="#000" stroke-width="2" fill="none"/><path d="M1221 428c0-2.76 2.24-5 5-5h51c2.76 0 5 2.24 5 5v51c0 2.76-2.24 5-5 5h-51c-2.76 0-5-2.24-5-5z" fill="none"/><g fill="none"><path d="M484 484l-49.5 49.5M414 484c0 19.33 6.83 35.83 20.5 49.5" stroke="#000" stroke-width="2"/><path d="M484 549c0 2.76-2.24 5-5 5h-60c-2.76 0-5-2.24-5-5v-60c0-2.76 2.24-5 5-5h60c2.76 0 5 2.24 5 5z"/></g><path d="M414.02 375.5l-6.26 6.25L414 388h298.08v-12.5z" stroke="#fff" fill="#fff"/><path d="M414.02 375.5h298.06V388H414m.02-12.5" stroke="#000" stroke-width="2" fill="none"/><use xlink:href="#e" transform="matrix(1,0,0,1,529.9210398799235,345.5) translate(10.8 14.4)"/><path d="M961.75 375.75v12.5h320L1288 382l-6.25-6.25z" stroke="#fff" fill="#fff"/><path d="M961.75 375.75h320m0 12.5h-320v-12.5" stroke="#000" stroke-width="2" fill="none"/><use xlink:href="#f" transform="matrix(0.9999999999999514,-3.1189062035260933e-7,3.1189062035260933e-7,0.9999999999999514,1094.8749886935502,345.75012708722045) translate(10.125 14.4)"/><g stroke="#000" stroke-width="2"><path d="M427.95 342.07V241.93h4.67v100.14h-4.67zM539.88 342.07V241.93h4.67v100.14h-4.67zM432.74 341.36v-98.72h107.02v98.72H432.74z" fill="#555"/><path d="M435.3 332.13v-33c0-1.9 1.4-3.52 3.05-3.52h12.97c1.75 0 3.03 1.62 3.03 3.52v33c0 1.92-1.28 3.53-3.03 3.53h-12.97c-1.64 0-3.04-1.6-3.04-3.52zM435.3 284.88v-33c0-1.92 1.4-3.52 3.05-3.52h12.97c1.75 0 3.03 1.6 3.03 3.5v33.02c0 1.9-1.28 3.5-3.03 3.5h-12.97c-1.64 0-3.04-1.6-3.04-3.5zM457.5 292.5v-.1l14.6 22.07v-71.83h-14.6v49.86z" fill="#fff"/><path d="M472 341.36l11.45-9.93-25.94-39.23 14.5 49.16z" fill="#fff"/></g><g stroke="#000" stroke-width="2"><path d="M1256.72 242.1v100.13h-4.68V242.1h4.68zM1144.8 242.1v100.13h-4.68V242.1h4.67zM1251.93 242.8v98.73H1144.9V242.8h107.03z" fill="#555"/><path d="M1249.36 252.03v33c0 1.92-1.4 3.52-3.04 3.52h-12.97c-1.75 0-3.04-1.6-3.04-3.5v-33.02c0-1.9 1.3-3.5 3.05-3.5h12.97c1.63 0 3.04 1.6 3.04 3.5zM1249.36 299.3v33c0 1.9-1.4 3.5-3.04 3.5h-12.97c-1.75 0-3.04-1.6-3.04-3.5v-33c0-1.92 1.3-3.52 3.05-3.52h12.97c1.63 0 3.04 1.6 3.04 3.5zM1227.16 291.66v.1l-14.6-22.07v71.83h14.6v-49.87z" fill="#fff"/><path d="M1212.67 242.8l-11.45 9.94 25.94 39.23-14.5-49.17z" fill="#fff"/></g><path d="M1086.37 180.9c0 8.67-4.06 15.62-9.08 15.62-5 0-9.06-6.95-9.06-15.6 0-8.62 4.06-15.62 9.05-15.62 5 0 9.07 7 9.07 15.6z" stroke="#000" stroke-width="2" fill="#fff"/><path d="M1088.57 190.54c0 9.08-5.04 16.46-11.28 16.46-6.22 0-11.26-7.38-11.26-16.46 0-9.12 5.04-16.5 11.25-16.5 6.23 0 11.27 7.38 11.27 16.5z" stroke="#000" stroke-width="2" fill="#fff"/><path d="M1064.3 164.63h26c.34 0 .62.6.62 1.35v8.74c0 .76-.28 1.36-.63 1.36h-26c-.33 0-.6-.6-.6-1.36v-8.74c0-.76.27-1.35.6-1.35zM1071.2 176.16h12.22c.33 0 .6.47.6 1.1 0 .6-.27 1.1-.6 1.1h-12.23c-.37 0-.64-.5-.64-1.1 0-.63.27-1.1.63-1.1zM595.37 188.12c0 8.66-4.06 15.6-9.08 15.6-5 0-9.06-6.94-9.06-15.6 0-8.6 4.06-15.6 9.05-15.6 5 0 9.07 7 9.07 15.6z" stroke="#000" stroke-width="2" fill="#fff"/><path d="M597.57 197.75c0 9.08-5.04 16.46-11.28 16.46-6.22 0-11.26-7.37-11.26-16.45 0-9.12 5.04-16.5 11.25-16.5 6.23 0 11.27 7.38 11.27 16.5z" stroke="#000" stroke-width="2" fill="#fff"/><path d="M573.3 171.83h26c.34 0 .62.6.62 1.36v8.73c0 .76-.28 1.36-.63 1.36h-26c-.33 0-.6-.6-.6-1.37v-8.74c0-.77.27-1.37.6-1.37zM580.2 183.37h12.22c.33 0 .6.47.6 1.1 0 .6-.27 1.1-.6 1.1H580.2c-.37 0-.64-.5-.64-1.1 0-.63.27-1.1.63-1.1z" stroke="#000" stroke-width="2" fill="#fff"/><path d="M658 154.8h-12.5v164.12l6.25-6.25 6.25-6.25z" stroke="#fff" fill="#fff"/><path d="M658 154.8v151.62m-12.5 12.5v-164.1H658" stroke="#000" stroke-width="2" fill="none"/><use xlink:href="#g" transform="matrix(6.123233995736766e-17,1,-1,6.123233995736766e-17,688,206.86458333333326) translate(15.125 14.4)"/><path d="M1018.5 154.8H1006v151.9l6.26 6.24 6.25 6.25z" stroke="#fff" fill="#fff"/><path d="M1018.5 154.8v164.4m-12.5-12.5V154.8h12.5" stroke="#000" stroke-width="2" fill="none"/><use xlink:href="#h" transform="matrix(6.123233995736766e-17,1,-1,6.123233995736766e-17,1048.5102795843864,207.00000000000023) translate(15.125 14.4)"/><path d="M401.75 142.5l6.25 6.25 6.24 6.24 237.52-.5v-6.25l-.02-6.25z" stroke="#fff" fill="#fff"/><path d="M401.75 142.5l250-.5m0 12.5l-237.5.5m-12.5-12.5" stroke="#000" stroke-width="2" fill="none"/><use xlink:href="#i" transform="matrix(0.9999979060501393,-0.0020464347868510316,0.0020464347868510316,0.9999979060501393,496.686558364176,112.3172456643527) translate(15.125 14.4)"/><path d="M1023.25 184.78V160c0-2.76 2.24-5 5-5H1095c2.76 0 5 2.24 5 5v79.33c0 2.76-2.24 5-5 5h-20.58" stroke="#000" stroke-width="5" fill="none"/><path d="M893.75 142v12.5h388l6.25-6.25 6.25-6.25z" stroke="#fff" fill="#fff"/><path d="M893.75 142h400.5m-12.5 12.5h-388V142" stroke="#000" stroke-width="2" fill="none"/><use xlink:href="#j" transform="matrix(0.9999999999973804,0.0000022889254903599095,-0.0000022889254903599095,0.9999999999973804,1064.0000758206274,111.99969849151518) translate(10.125 14.4)"/><path d="M658 306.42l-6.25 6.25-6.25 6.25h151.42v-12.5z" stroke="#fff" fill="#fff"/><path d="M658 306.42h138.92v12.5H645.5m12.5-12.5" stroke="#000" stroke-width="2" fill="none"/><use xlink:href="#k" transform="matrix(1,0,0,1,691.2083333333333,276.41666666666663) translate(15.125 14.4)"/><path d="M799.33 306.7v12.5-12.5zm97.34 0v12.5h121.84l-6.24-6.26-6.25-6.25z" stroke="#fff" fill="#fff"/><path d="M799.33 306.7v12.5-12.5zm97.34 0H1006m12.5 12.5H896.68v-12.5" stroke="#000" stroke-width="2" fill="none"/><use xlink:href="#l" transform="matrix(1,0,0,1,915.9269462510532,276.68750000000017) translate(10.8 14.4)"/><g fill="none"><path d="M712 319l39.13 39.13M712 374.33c15.28 0 28.32-5.4 39.13-16.2" stroke="#000" stroke-width="2"/><path d="M762.33 319c2.76 0 5 2.24 5 5v45.33c0 2.76-2.24 5-5 5H717c-2.76 0-5-2.24-5-5V324c0-2.76 2.24-5 5-5z"/></g><g fill="none"><path d="M964.33 376l3.1-51.24m48.24 51.24c0-27.26-21.03-49.6-48.24-51.24" stroke="#000" stroke-width="2"/><path d="M964.33 329.67c0-2.76 2.24-5 5-5h41.34c2.76 0 5 2.24 5 5V371c0 2.76-2.24 5-5 5h-41.34c-2.76 0-5-2.24-5-5z"/></g><g fill="none"><path d="M896.67 312.94v-48.67M848 312.94c0-26.88 21.8-48.67 48.67-48.67m-97.34 48.67v-48.67M848 312.94c0-26.88-21.8-48.67-48.67-48.67" stroke="#000" stroke-width="2"/><path d="M896.67 307.94c0 2.76-2.24 5-5 5h-87.34c-2.76 0-5-2.24-5-5v-38.67c0-2.76 2.24-5 5-5h87.34c2.76 0 5 2.24 5 5z"/></g><path d="M965.62 248.3l-1.58 2.3-2.83-1.38c-1.85-.88-.32-3.23 1.6-2.3l2.82 1.38zM965.62 264.43l-1.58-2.3-2.83 1.37c-1.85.9-.32 3.24 1.6 2.3l2.82-1.37z"/><path d="M988.64 274.7c-4.18 0-7.62-8.23-7.62-18.36 0-10.16 3.44-18.36 7.62-18.36 4.23 0 7.63 8.2 7.63 18.36 0 10.13-3.4 18.37-7.63 18.37z" stroke="#000" stroke-width="2" fill="#aaa"/><path d="M962.6 248.3v16.1l24.93-.9v-14.28zM995.57 270.28c-3.67 0-6.6-6.24-6.6-13.94 0-7.7 2.93-13.93 6.6-13.93 3.67 0 6.6 6.24 6.6 13.94 0 7.7-2.93 13.94-6.6 13.94z" stroke="#000" stroke-width="2" fill="#aaa"/><path d="M998.3 270.28c-3.66 0-6.6-6.24-6.6-13.94 0-7.7 2.94-13.93 6.6-13.93 3.7 0 6.62 6.24 6.62 13.94 0 7.7-2.93 13.94-6.6 13.94z" stroke="#000" stroke-width="2" fill="#aaa"/><path d="M995.85 237.36c4.14 1.24 6.93 8.05 2.05 7.78-2.56-.15-6 1.3-7.68-.3-1.95-1.9-2.8-7.05.65-7.44 3.3-.38 4-.3 4.98-.04zM995.85 275.36c4.14-1.23 6.93-8.04 2.05-7.77-2.56.14-6-1.32-7.68.3-1.95 1.84-2.8 7.04.65 7.42 3.3.35 4 .3 4.98.04z" stroke="#000" stroke-width="2" fill="#aaa"/><path d="M1005.52 242.06c1.82 14.28 1.77 14.28 0 28.57 0 0-.23 1.08-1.72 1.42-1.44.35-4 0-6.56-1.42-2.7-14.3-2.65-14.3 0-28.57 2.52-1.4 5.12-1.58 6.56-1.4 1.5.25 1.72 1.4 1.72 1.4zM987.3 243.8l-.1 5.42-24.32-.92s-2.1-5.82 0-7.63c2.93-2.46 8.32-.5 12.42 0 4.14.54 12 3.12 12 3.12zM987.3 268.86l-.1-5.36-24.32.9s-2.1 5.8 0 7.6c2.93 2.48 8.32.5 12.42 0 4.14-.53 12-3.14 12-3.14z" stroke="#000" stroke-width="2" fill="#aaa"/><path d="M987.85 238.36v3.7h-16.88c-4.14 0-4.04-3.16 0-3.7h16.88zM987.85 274.28v-3.65h-16.88c-4.14 0-4.04 3.15 0 3.65h16.88z" fill="#2b2b2b"/><g><path d="M965.7 209.7l-1.57 2.3-2.84-1.37c-1.87-.9-.33-3.24 1.57-2.3l2.84 1.37zM965.7 225.84l-1.57-2.32-2.84 1.4c-1.87.88-.33 3.22 1.57 2.3l2.84-1.38z"/><path d="M988.73 236.1c-4.2 0-7.63-8.22-7.63-18.35 0-10.16 3.44-18.36 7.63-18.36 4.23 0 7.62 8.2 7.62 18.35 0 10.13-3.4 18.36-7.62 18.36z" stroke="#000" stroke-width="2" fill="#aaa"/><path d="M962.7 209.7v16.1l24.9-.9v-14.27zM995.65 231.7c-3.67 0-6.6-6.25-6.6-13.95 0-7.7 2.93-13.94 6.6-13.94 3.68 0 6.6 6.25 6.6 13.95 0 7.7-2.92 13.94-6.6 13.94z" stroke="#000" stroke-width="2" fill="#aaa"/><path d="M998.4 231.7c-3.68 0-6.6-6.25-6.6-13.95 0-7.7 2.92-13.94 6.6-13.94 3.67 0 6.6 6.25 6.6 13.95 0 7.7-2.93 13.94-6.6 13.94z" stroke="#000" stroke-width="2" fill="#aaa"/><path d="M995.93 198.77c4.14 1.23 6.93 8.05 2.05 7.78-2.56-.16-6 1.3-7.67-.3-1.95-1.9-2.78-7.06.66-7.44 3.3-.38 4-.3 4.97-.03zM995.93 236.77c4.14-1.23 6.93-8.05 2.05-7.78-2.56.15-6-1.32-7.67.3-1.95 1.85-2.78 7.05.66 7.43 3.3.35 4 .3 4.97.04z" stroke="#000" stroke-width="2" fill="#aaa"/><path d="M1005.6 203.47c1.82 14.28 1.77 14.28 0 28.56 0 0-.23 1.08-1.72 1.43-1.44.34-4 0-6.55-1.43-2.7-14.28-2.65-14.28 0-28.56 2.5-1.4 5.1-1.58 6.55-1.4 1.5.24 1.72 1.4 1.72 1.4zM987.38 205.2l-.1 5.43-24.32-.93s-2.1-5.8 0-7.62c2.93-2.46 8.33-.5 12.42 0 4.14.54 12 3.12 12 3.12zM987.38 230.26l-.1-5.35-24.32.9s-2.1 5.8 0 7.62c2.93 2.46 8.33.5 12.42 0 4.14-.54 12-3.16 12-3.16z" stroke="#000" stroke-width="2" fill="#aaa"/><path d="M987.94 199.77v3.7h-16.88c-4.14 0-4.05-3.16 0-3.7h16.88zM987.94 235.7v-3.67h-16.88c-4.14 0-4.05 3.16 0 3.66h16.88z" fill="#2b2b2b"/></g><g stroke="#000" stroke-width="2"><path d="M703.37 254.25l-.8-2.82 6.83-1.73c1.9-.52 2.7 2.35.82 2.84l-6.85 1.7zM691.94 242.82l2.82.8 1.73-6.83c.5-1.92-2.36-2.7-2.85-.83l-1.7 6.85z"/><path d="M680.7 242.63c-6.07 6.08-5.9 16.15.4 22.45 6.3 6.3 16.38 6.48 22.47.4 6.08-6.1 5.9-16.15-.4-22.46-6.3-6.3-16.37-6.48-22.46-.4z" fill="#ccc"/><path d="M691.64 277.4c-13.45-9.4-13.48-9.37-22.85-22.85.3-4.08 4.15-5.2 6.64-4.33 1.02.37 3.64 6.16 9 11.52 5.35 5.4 11.2 8.02 11.56 9.03.9 2.47-.25 6.33-4.36 6.63z" fill="#666"/><path d="M692.2 276.86c-13.47-9.4-13.5-9.38-22.86-22.86.32-4.08 4.15-5.2 6.65-4.33 1 .38 3.62 6.16 9 11.53 5.36 5.37 11.17 8 11.54 9.03.9 2.47-.25 6.33-4.35 6.63z" fill="#ccc"/><path d="M699.04 271.54l-2.47-2.48 10.1-10.1c2.4 1 2.4 1 2.46 2.5l-10.1 10.08zM677.13 249.62l-2.48-2.47 10.1-10.1c1.48.06 1.48.06 2.47 2.48l-10.1 10.1z" fill="#666"/></g><g stroke="#000" fill="#999"><path d="M733.94 282.53c2.76 0 5 2.23 5 5v13.42c0 2.76-2.24 5-5 5h-30.1c-2.77 0-5-2.24-5-5v-13.42c0-2.77 2.23-5 5-5z" stroke-width="2"/><path d="M697.16 284.87v18.74m-1.67-18.73v18.74"/></g><g><path d="M733.94 221.62c2.76 0 5 2.23 5 5V301c0 2.76-2.24 5-5 5h-30.1c-2.77 0-5-2.24-5-5v-28.45c0-2.25 1.5-5.13 3.34-6.42l1.42-1c1.06-.74 1.92-2.4 1.92-3.7 0-1.28-.86-2.93-1.92-3.68l-15.4-10.8c-1.5-1.05-4.23-1.9-6.08-1.9-1.84 0-4.57.85-6.08 1.9l-.6.43c-1.85 1.3-5.17 2.35-7.43 2.35h-5c-2.76 0-5-2.24-5-5v-18.1c0-2.78 2.24-5 5-5z" stroke="#000" stroke-width="2" fill="#eee"/></g><g><path d="M658.73 221.62h75.2c2.77 0 5 2.23 5 5v74.33c0 2.76-2.23 5-5 5h-35.1" stroke="#000" stroke-width="5" fill="none"/></g><g stroke="#000"><path d="M713.15 231.55l8.12 8.12c.66.66.67 1.74.02 2.4l-2 1.98c-.66.66-1.74.65-2.4-.02l-8.12-8.12c-.67-.65-.66-1.7 0-2.37l2-1.98c.65-.66 1.7-.67 2.37 0z" fill="#ddd"/><path d="M705.92 230.66l16.24 16.24.4 2.8-19.46-19.46 2.82.42zM710.53 233.68l8.6 8.6-.76.76-8.6-8.6.76-.76zM716.5 236.3c-.3-.3-.82-.3-1.15.02-.1.12-.2.25-.22.4l-.74.75.97.97.73-.73c.15-.04.3-.1.42-.22.32-.32.32-.84 0-1.17zM698.5 230L718 249.45l-5.3 5.3-19.48-19.46 5.3-5.3z" fill="#ddd"/><path d="M698.53 231.58l14.2 14.2-3.67 3.67-14.2-14.2 3.67-3.67zM713.54 246.6l2.85 2.84-3.68 3.66-2.85-2.84 3.67-3.67z" fill="#6f6f6f"/><path d="M719.76 253.95c-.3-.3-.75-.3-1.03 0l-1.45 1.43-.07.08-.08.08c-.44.44-.45 1.16 0 1.6.45.46 1.18.45 1.62 0 .02 0 .06-.05.08-.07l.07-.07 1.44-1.45c.3-.28.27-.75 0-1.03l-.58-.57zM720.04 254.23l-1.1 1.1" fill="#ddd"/></g><g><path d="M651.74 142v6.25l.02 6.25h123.82V142z" stroke="#fff" fill="#fff"/><path d="M651.74 142h123.84v12.5H651.76m-.02-12.5" stroke="#000" stroke-width="2" fill="none"/></g><g><use xlink:href="#m" transform="matrix(0.9999999999837371,-0.00000570314134681038,0.00000570314134681038,0.9999999999837371,683.6632714636398,111.99981169079926) translate(15.125 14.4)"/></g><g fill="none"><path d="M776 154l41.96-41.96M835.33 154c0-16.38-5.8-30.37-17.37-41.96m76.7 41.96l-41.95-41.96M835.34 154c0-16.38 5.8-30.37 17.38-41.96" stroke="#000" stroke-width="2"/><path d="M776 99.67c0-2.77 2.24-5 5-5h108.67c2.76 0 5 2.24 5 5V149c0 2.76-2.24 5-5 5H781c-2.76 0-5-2.24-5-5z"/></g><defs><path d="M27 0v-27h64v-190l-56 39v-29l58-41h29v221h61V0H27" id="n"/><path d="M134-131c28 9 52 24 51 62-1 50-34 73-85 73S17-19 16-69c0-36 21-54 49-61-75-25-45-126 34-121 46 3 78 18 79 63 0 33-17 51-44 57zm-34-11c31 1 46-15 46-44 0-28-17-43-47-42-29 0-46 13-45 42 1 28 16 44 46 44zm1 122c35 0 51-18 51-52 0-30-18-46-53-46-33 0-51 17-51 47 0 34 19 51 53 51" id="o"/><path d="M47-170H22l-4-78h33" id="p"/><path d="M64 0c3-98 48-159 88-221H18v-27h164v26C143-157 98-101 97 0H64" id="q"/><path d="M109-170H84l-4-78h32zm-65 0H19l-4-78h33" id="r"/><g id="a"><use transform="matrix(0.05,0,0,0.05,0,0)" xlink:href="#n"/><use transform="matrix(0.05,0,0,0.05,10,0)" xlink:href="#o"/><use transform="matrix(0.05,0,0,0.05,20,0)" xlink:href="#p"/><use transform="matrix(0.05,0,0,0.05,23.4,0)" xlink:href="#q"/><use transform="matrix(0.05,0,0,0.05,33.4,0)" xlink:href="#r"/></g><path d="M101-251c82-7 93 87 43 132L82-64C71-53 59-42 53-27h129V0H18c2-99 128-94 128-182 0-28-16-43-45-43s-46 15-49 41l-32-3c6-41 34-60 81-64" id="s"/><g id="b"><use transform="matrix(0.05,0,0,0.05,0,0)" xlink:href="#s"/><use transform="matrix(0.05,0,0,0.05,10,0)" xlink:href="#o"/><use transform="matrix(0.05,0,0,0.05,20,0)" xlink:href="#p"/><use transform="matrix(0.05,0,0,0.05,23.4,0)" xlink:href="#n"/><use transform="matrix(0.05,0,0,0.05,32.05,0)" xlink:href="#n"/><use transform="matrix(0.05,0,0,0.05,42.05,0)" xlink:href="#r"/></g><g id="c"><use transform="matrix(0.05,0,0,0.05,0,0)" xlink:href="#q"/><use transform="matrix(0.05,0,0,0.05,10,0)" xlink:href="#p"/><use transform="matrix(0.05,0,0,0.05,13.4,0)" xlink:href="#s"/><use transform="matrix(0.05,0,0,0.05,23.4,0)" xlink:href="#r"/></g><path d="M155-56V0h-30v-56H8v-25l114-167h33v167h35v25h-35zm-30-156c-27 46-58 90-88 131h88v-131" id="t"/><g id="d"><use transform="matrix(0.05,0,0,0.05,0,0)" xlink:href="#s"/><use transform="matrix(0.05,0,0,0.05,10,0)" xlink:href="#t"/><use transform="matrix(0.05,0,0,0.05,20,0)" xlink:href="#p"/><use transform="matrix(0.05,0,0,0.05,23.4,0)" xlink:href="#q"/><use transform="matrix(0.05,0,0,0.05,33.4,0)" xlink:href="#r"/></g><path d="M99-251c64 0 84 50 84 122C183-37 130 33 47-8c-14-7-20-23-25-40l30-5c6 39 69 39 84 7 9-19 16-44 16-74-10 22-31 35-62 35-49 0-73-33-73-83 0-54 28-83 82-83zm-1 141c31-1 51-18 51-49 0-36-14-67-51-67-34 0-49 23-49 58 0 34 15 58 49 58" id="u"/><g id="e"><use transform="matrix(0.05,0,0,0.05,0,0)" xlink:href="#u"/><use transform="matrix(0.05,0,0,0.05,10,0)" xlink:href="#p"/><use transform="matrix(0.05,0,0,0.05,13.4,0)" xlink:href="#n"/><use transform="matrix(0.05,0,0,0.05,22.05,0)" xlink:href="#n"/><use transform="matrix(0.05,0,0,0.05,32.05,0)" xlink:href="#r"/></g><path d="M101-251c68 0 85 55 85 127S166 4 100 4C33 4 14-52 14-124c0-73 17-127 87-127zm-1 229c47 0 54-49 54-102s-4-102-53-102c-51 0-55 48-55 102 0 53 5 102 54 102" id="v"/><g id="f"><use transform="matrix(0.05,0,0,0.05,0,0)" xlink:href="#n"/><use transform="matrix(0.05,0,0,0.05,10,0)" xlink:href="#v"/><use transform="matrix(0.05,0,0,0.05,20,0)" xlink:href="#p"/><use transform="matrix(0.05,0,0,0.05,23.4,0)" xlink:href="#o"/><use transform="matrix(0.05,0,0,0.05,33.4,0)" xlink:href="#r"/></g><path d="M54-142c48-35 137-8 131 61C196 18 31 33 14-55l32-4c7 23 22 37 52 37 35-1 51-22 54-58 4-55-73-65-99-34H22l8-134h141v27H59" id="w"/><g id="g"><use transform="matrix(0.05,0,0,0.05,0,0)" xlink:href="#w"/><use transform="matrix(0.05,0,0,0.05,10,0)" xlink:href="#p"/><use transform="matrix(0.05,0,0,0.05,13.4,0)" xlink:href="#n"/><use transform="matrix(0.05,0,0,0.05,23.4,0)" xlink:href="#r"/></g><path d="M110-160c48 1 74 30 74 79 0 53-28 85-80 85-65 0-83-55-86-122-5-90 50-162 133-122 14 7 22 21 27 39l-31 6c-5-40-67-38-82-6-9 19-15 44-15 74 11-20 30-34 60-33zm-7 138c34 0 49-23 49-58s-16-56-50-56c-29 0-50 16-49 49 1 36 15 65 50 65" id="x"/><g id="h"><use transform="matrix(0.05,0,0,0.05,0,0)" xlink:href="#w"/><use transform="matrix(0.05,0,0,0.05,10,0)" xlink:href="#p"/><use transform="matrix(0.05,0,0,0.05,13.4,0)" xlink:href="#x"/><use transform="matrix(0.05,0,0,0.05,23.4,0)" xlink:href="#r"/></g><g id="i"><use transform="matrix(0.05,0,0,0.05,0,0)" xlink:href="#o"/><use transform="matrix(0.05,0,0,0.05,10,0)" xlink:href="#p"/><use transform="matrix(0.05,0,0,0.05,13.4,0)" xlink:href="#t"/><use transform="matrix(0.05,0,0,0.05,23.4,0)" xlink:href="#r"/></g><path d="M126-127c33 6 58 20 58 59 0 88-139 92-164 29-3-8-5-16-6-25l32-3c6 27 21 44 54 44 32 0 52-15 52-46 0-38-36-46-79-43v-28c39 1 72-4 72-42 0-27-17-43-46-43-28 0-47 15-49 41l-32-3c6-42 35-63 81-64 48-1 79 21 79 65 0 36-21 52-52 59" id="y"/><g id="j"><use transform="matrix(0.05,0,0,0.05,0,0)" xlink:href="#n"/><use transform="matrix(0.05,0,0,0.05,10,0)" xlink:href="#y"/><use transform="matrix(0.05,0,0,0.05,20,0)" xlink:href="#p"/><use transform="matrix(0.05,0,0,0.05,23.4,0)" xlink:href="#t"/><use transform="matrix(0.05,0,0,0.05,33.4,0)" xlink:href="#r"/></g><g id="k"><use transform="matrix(0.05,0,0,0.05,0,0)" xlink:href="#t"/><use transform="matrix(0.05,0,0,0.05,10,0)" xlink:href="#p"/><use transform="matrix(0.05,0,0,0.05,13.4,0)" xlink:href="#o"/><use transform="matrix(0.05,0,0,0.05,23.4,0)" xlink:href="#r"/></g><g id="l"><use transform="matrix(0.05,0,0,0.05,0,0)" xlink:href="#x"/><use transform="matrix(0.05,0,0,0.05,10,0)" xlink:href="#p"/><use transform="matrix(0.05,0,0,0.05,13.4,0)" xlink:href="#n"/><use transform="matrix(0.05,0,0,0.05,22.05,0)" xlink:href="#n"/><use transform="matrix(0.05,0,0,0.05,32.05,0)" xlink:href="#r"/></g><g id="m"><use transform="matrix(0.05,0,0,0.05,0,0)" xlink:href="#t"/><use transform="matrix(0.05,0,0,0.05,10,0)" xlink:href="#p"/><use transform="matrix(0.05,0,0,0.05,13.4,0)" xlink:href="#s"/><use transform="matrix(0.05,0,0,0.05,23.4,0)" xlink:href="#r"/></g></defs></g></svg>